<svg width="195" height="216" viewBox="0 0 195 216" fill="none" xmlns="http://www.w3.org/2000/svg">
<path d="M81.3333 10.9992L81.461 30.4656C81.5542 31.9648 81.3158 33.4662 80.7631 34.8609C80.2104 36.2556 79.3572 37.5088 78.2655 38.5296C77.0044 39.5628 75.5533 40.3341 73.9958 40.7992C72.4383 41.2642 70.805 41.4136 69.19 41.2391H68.2474L65.5151 34.5783C67.5274 34.6315 69.5209 34.1769 71.3151 33.2558C73.0887 32.3204 73.9834 31.2398 73.9674 30.0302L73.8397 11.1605L81.3333 10.9992Z" fill="#020A0A"/>
<path d="M108.224 31.143H104.054C104.038 32.56 103.718 33.9568 103.117 35.2374C102.516 36.518 101.647 37.6521 100.571 38.5618C98.0541 40.4728 94.9155 41.3541 91.7828 41.0294H90.8242L88.1079 34.3686C89.7449 34.393 91.3716 34.1029 92.9013 33.5138C94.1678 33.0954 95.2809 32.3033 96.0968 31.2398H91.7508C91.0578 31.2484 90.3708 31.1092 89.7348 30.8313C89.0987 30.5534 88.5279 30.143 88.0599 29.627C87.0099 28.5563 86.2221 27.253 85.7591 25.8208C85.3111 24.446 85.074 23.0101 85.0561 21.563C84.8187 18.7261 85.6519 15.9034 87.3889 13.6603C88.2196 12.7611 89.2348 12.0557 90.3635 11.5933C91.4922 11.1309 92.7072 10.9226 93.9239 10.9831H96.4643H103.99L104.086 24.5951H108.208L108.224 31.143ZM91.1436 21.192C91.1141 21.6668 91.1955 22.1419 91.3815 22.579C91.5675 23.016 91.8528 23.4028 92.2142 23.708C93.546 24.3878 95.0447 24.6624 96.5282 24.4983V17.9019C95.0529 17.7702 93.5704 18.055 92.2461 18.7245C91.8786 19.0154 91.5865 19.3918 91.3945 19.8215C91.2025 20.2512 91.1164 20.7215 91.1436 21.192Z" fill="#020A0A"/>
<path d="M137.671 30.9495H131.775C130.619 32.431 129.147 33.6309 127.468 34.4605C125.79 35.2901 123.948 35.728 122.079 35.742C120.211 35.7559 118.363 35.3455 116.672 34.541C114.982 33.7366 113.493 32.5587 112.314 31.0946H106.419V24.3693H109.614C109.593 24.0202 109.593 23.6701 109.614 23.321C109.707 20.0754 111.044 16.9928 113.344 14.7228C115.644 12.4527 118.727 11.1723 121.944 11.1514C125.161 11.1305 128.26 12.3706 130.588 14.6106C132.917 16.8506 134.294 19.9155 134.428 23.1597C134.447 23.5088 134.447 23.8588 134.428 24.208H137.623L137.671 30.9495ZM116.612 23.3694C116.612 27.0035 118.407 28.8098 121.997 28.7883C125.587 28.7668 127.376 26.939 127.366 23.3048C127.366 19.6599 125.528 17.8536 121.933 17.8859C118.338 17.9181 116.596 19.6761 116.612 23.3694Z" fill="#020A0A"/>
<path d="M135.85 30.9656V24.2241L151.396 24.1274L151.316 10.5154H158.666L158.794 30.8527L135.85 30.9656ZM148.632 6.7737H141.282V0H148.632V6.7737ZM158.475 6.7737H151.125V0H158.475V6.7737Z" fill="#020A0A"/>
<path d="M17.3258 160.812V171.391H12.9478V183.697H0.804626V152.393C0.804626 146.458 2.40242 141.845 5.59799 138.636C8.79357 135.426 13.2035 133.797 19.0195 133.797C24.5691 133.797 28.6381 135.233 31.2265 138.103C33.8149 140.974 35.1251 145.555 35.1251 151.844V183.697H22.9021V152.86C23.0187 151.072 22.6602 149.285 21.8635 147.683C21.4521 147.091 20.8918 146.621 20.2401 146.32C19.5885 146.02 18.8693 145.9 18.1566 145.974C14.7693 145.974 13.0916 148.28 13.0916 152.86V160.812H17.3258Z" fill="#020A0A"/>
<path d="M78.4253 158.844V165.843H64.3008V158.844H78.4253Z" fill="#020A0A"/>
<path d="M150.773 173.778V184.407C150.241 184.448 149.707 184.448 149.175 184.407C146.774 184.475 144.383 184.051 142.148 183.161C139.913 182.271 137.879 180.934 136.169 179.23C133.644 176.683 131.925 173.438 131.23 169.904C130.534 166.371 130.894 162.708 132.263 159.381C133.632 156.054 135.949 153.212 138.92 151.216C141.891 149.219 145.383 148.158 148.952 148.167C154.576 148.167 159.002 149.78 162.181 153.006C165.361 156.231 166.975 160.812 166.975 166.601V183.584H155.95V167.618C156.038 165.529 155.387 163.476 154.113 161.828C153.514 161.083 152.752 160.49 151.887 160.095C151.021 159.7 150.076 159.515 149.128 159.554C147.292 159.566 145.536 160.308 144.238 161.618C142.94 162.928 142.206 164.701 142.193 166.553C142.18 167.447 142.342 168.336 142.671 169.166C143 169.997 143.49 170.753 144.11 171.391C144.724 172.045 145.47 172.559 146.296 172.898C147.123 173.238 148.012 173.395 148.904 173.359C150.358 173.553 150.997 173.633 150.773 173.778Z" fill="#020A0A"/>
<path d="M183.208 160.828H194.217V191.1C194.217 197.422 192.763 202.389 189.871 206.05C188.044 208.331 185.711 210.146 183.06 211.348C180.409 212.55 177.515 213.105 174.612 212.969C172.677 212.977 170.754 212.656 168.924 212.018V202.147C170.336 202.731 171.857 203 173.382 202.938C179.949 202.938 183.208 198.325 183.208 189.052V160.828ZM188.305 143.99C189.028 143.987 189.745 144.128 190.414 144.404C191.083 144.681 191.691 145.088 192.204 145.603C192.711 146.075 193.116 146.648 193.391 147.287C193.666 147.926 193.806 148.616 193.802 149.312C193.837 150.01 193.723 150.707 193.467 151.356C193.21 152.004 192.817 152.589 192.316 153.07C191.224 154.077 189.782 154.604 188.305 154.538C187.579 154.574 186.852 154.462 186.169 154.21C185.486 153.958 184.859 153.57 184.327 153.07C183.81 152.595 183.4 152.014 183.124 151.366C182.848 150.718 182.714 150.018 182.729 149.312C182.727 148.616 182.869 147.927 183.144 147.289C183.419 146.651 183.821 146.077 184.327 145.603C184.846 145.074 185.466 144.658 186.151 144.381C186.835 144.104 187.568 143.971 188.305 143.99Z" fill="#020A0A"/>
<path d="M98.7811 141.329C94.7166 141.717 90.6217 141.641 86.574 141.103V183.697H98.7811V164.134H103.063V153.538H98.829L98.7811 141.329Z" fill="#020A0A"/>
<path d="M108.607 139.926V183.697H120.831V136.926C116.964 138.071 112.826 139.103 108.607 139.926Z" fill="#020A0A"/>
<path d="M46.166 139.2V183.697H57.1747V141.103C53.4124 141.273 49.6578 140.624 46.166 139.2Z" fill="#020A0A"/>
<path fill-rule="evenodd" clip-rule="evenodd" d="M72.1619 123.362C66.4418 115.299 67.081 103.767 66.4259 89.3325C65.611 71.1886 66.8253 52.3351 60.8496 34.7718L57.8776 43.5615C62.1277 60.7377 61.5206 72.5917 61.9201 89.2196C62.3355 106.235 61.7923 121.476 69.6214 131.378C82.8511 148.232 114.679 138.345 131.744 132.813C138.822 130.507 145.82 128.072 152.85 125.959C163.412 122.733 172.104 122.492 178.766 123.991L182.777 116.847C169.511 115.906 156.362 113.709 143.503 110.283C145.868 106.138 146.827 93.3162 146.603 87.7037C146.14 76.7689 144.286 64.5923 142.896 53.6092C144.382 54.8672 145.469 56.2219 146.635 57.109C146.986 57.3993 147.418 57.1089 147.162 56.0606C145.005 49.6095 142.481 43.1583 139.317 35.8846L136.297 42.4487L137.112 44.2711L137.512 48.6741C139.109 60.899 140.404 74.4787 141.442 86.8166C142.115 93.0727 142.451 99.3611 142.449 105.654C137.975 105.783 131.584 105.831 123.275 106.38L120.08 113.154C130.497 113.879 142.321 117.992 153.537 119.459C151.157 119.459 142.353 122.685 131.887 125.991C114.615 131.588 85.072 141.555 72.1619 123.362Z" fill="#A17D23"/>
<path fill-rule="evenodd" clip-rule="evenodd" d="M164.93 88.1552C166.959 105.219 168.125 121.121 164.674 131.362C163.859 133.749 162.9 133.781 163.076 131.362C163.38 118.572 161.478 101.896 160.104 88.768C158.347 72.8014 157.692 65.0439 155.503 48.3515L155.103 43.8841L154.192 42.0777L157.244 35.433C160.44 42.7712 163.028 49.3514 165.233 55.8832C165.489 56.867 165.057 57.238 164.69 56.9638C163.524 56.0445 162.405 54.6736 160.887 53.3995C162.916 69.1242 163.444 75.5432 164.93 88.1552Z" fill="#A17D23"/>
<path fill-rule="evenodd" clip-rule="evenodd" d="M48.5786 74.3981C44.9676 70.8984 39.3114 68.7534 34.2784 65.2697C29.7886 61.8667 30.907 55.4155 33.6392 52.8028C38.7042 47.2064 71.8423 49.3353 88.9387 51.7868L87.0853 57.9799C86.6699 58.0929 86.2639 58.2386 85.8709 58.4154C75.0539 64.5601 63.8694 68.7695 54.4424 76.1561C54.9794 77.1736 55.1809 78.3374 55.0176 79.4784C54.8738 80.2042 54.5383 80.0913 54.2027 79.8332C53.4218 79.2198 52.6801 78.5572 51.9819 77.8495C45.2712 81.7686 39.0557 90.0261 36.2276 99.1061C30.7152 116.847 40.4618 132.975 59.108 132.765C68.8149 132.419 78.0613 128.501 85.104 121.75C93.2847 114.541 94.3392 105.993 90.0411 100.025C86.3822 94.7193 80.071 93.429 73.6798 93.1065C70.0049 93.1065 66.1862 93.542 60.2104 93.542C53.6595 93.6549 48.7064 91.9292 44.3764 86.365C43.7533 85.5748 43.7532 84.7522 44.9676 84.9619C58.3091 88.9778 80.822 82.0589 91.3035 90.268C95.9211 94.4129 97.5508 101.848 94.0836 112.557C91.67 118.832 87.8557 124.46 82.937 129.006C78.0183 133.551 72.1278 136.89 65.7228 138.765C36.5792 145.732 27.0243 121.024 34.1345 97.4127C36.7677 88.5466 41.7381 80.5693 48.5146 74.3336L48.5786 74.3981ZM51.7742 71.4305C47.3962 65.9148 42.4271 62.8344 34.9974 59.5927C39.1037 54.2221 62.4313 56.7541 75.0539 57.1251C66.5377 61.657 59.9228 64.8181 51.8061 71.4305H51.7742Z" fill="#A17D23"/>
<path fill-rule="evenodd" clip-rule="evenodd" d="M48.5786 74.3981C44.9676 70.8984 39.3114 68.7534 34.2784 65.2697C29.7886 61.8667 30.907 55.4155 33.6392 52.8028C38.7042 47.2064 71.8423 49.3353 88.9387 51.7868L87.0853 57.9799C86.6699 58.0929 86.2639 58.2386 85.8709 58.4154C75.0539 64.5601 63.8694 68.7695 54.4424 76.1561C54.9794 77.1736 55.1809 78.3374 55.0176 79.4784C54.8738 80.2042 54.5383 80.0913 54.2027 79.8332C53.4218 79.2198 52.6801 78.5572 51.9819 77.8495C45.2712 81.7686 39.0557 90.0261 36.2276 99.1061C30.7152 116.847 40.4618 132.975 59.108 132.765C68.8149 132.419 78.0613 128.501 85.104 121.75C93.2847 114.541 94.3392 105.993 90.0411 100.025C86.3822 94.7193 80.071 93.429 73.6798 93.1065C70.0049 93.1065 66.1862 93.542 60.2104 93.542C53.6595 93.6549 48.7064 91.9292 44.3764 86.365C43.7533 85.5748 43.7532 84.7522 44.9676 84.9619C58.3091 88.9778 80.822 82.0589 91.3035 90.268C95.9211 94.4129 97.5508 101.848 94.0836 112.557C91.67 118.832 87.8557 124.46 82.937 129.006C78.0183 133.551 72.1278 136.89 65.7228 138.765C36.5792 145.732 27.0243 121.024 34.1345 97.4127C36.7677 88.5466 41.7381 80.5693 48.5146 74.3336L48.5786 74.3981ZM51.7742 71.4305C47.3962 65.9148 42.4271 62.8344 34.9974 59.5927C39.1037 54.2221 62.4313 56.7541 75.0539 57.1251C66.5377 61.657 59.9228 64.8181 51.8061 71.4305H51.7742Z" fill="#A17D23"/>
<path fill-rule="evenodd" clip-rule="evenodd" d="M130.018 57.4154C111.867 63.0601 95.3778 69.0759 79.9112 75.4787C79.4159 76.6399 78.7768 77.8172 78.3134 78.9784C93.3326 72.7369 109.822 66.576 128.564 60.7216C129.027 59.6249 129.523 58.5282 130.018 57.4154Z" fill="#A17D23"/>
<path fill-rule="evenodd" clip-rule="evenodd" d="M76.9234 102.396L84.0974 107.831L79.8154 114.282L72.7052 108.992C72.7052 108.992 76.9873 102.509 76.9234 102.396Z" fill="#A17D23"/>
<path fill-rule="evenodd" clip-rule="evenodd" d="M105.875 94.0419C106.658 92.2678 108.24 92.4291 109.806 94.2838C105.588 96.3482 104.277 98.4287 104.038 100.541C103.874 102.461 104.227 104.389 105.06 106.122C108.256 113.524 110.701 122.137 110.892 127.217C110.988 130.023 111.308 129.975 111.835 127.072C112.059 121.475 109.566 109.509 104.949 100.735C107.028 98.635 109.746 97.3003 112.666 96.9449C113.016 95.7625 113.188 94.5339 113.177 93.3C111.967 91.7714 110.418 90.5507 108.655 89.7357C109.326 86.1392 109.598 81.575 110.061 77.4946C110.685 74.2691 112.171 74.1239 114.487 77.0753C114.663 75.898 114.839 74.7206 114.999 73.5433C114.752 72.9322 114.345 72.4006 113.821 72.0056C113.298 71.6105 112.677 71.3671 112.027 71.3015C108.144 72.9143 109.071 80.7363 108.272 84.7844C107.185 81.552 105.456 78.5775 103.191 76.0431C102.271 75.0653 101.011 74.4869 99.6758 74.4303C98.3017 74.6239 98.3017 76.5915 98.3336 78.6236C99.8488 79.3919 101.297 80.2875 102.664 81.3009C102.871 81.0428 103.079 80.8009 103.271 80.5428C105.433 83.1571 106.936 86.2618 107.649 89.5906C105.763 89.7841 105.332 92.0259 105.092 93.7193C105.124 94.8322 105.092 95.5741 105.875 94.0419Z" fill="#A17D23"/>
<path fill-rule="evenodd" clip-rule="evenodd" d="M98.158 52.5448C96.747 51.4374 95.2511 50.4451 93.6842 49.5772C93.6842 47.4322 93.5245 45.2227 94.9944 45.013C95.6493 45.011 96.2977 45.1445 96.8995 45.4053C97.5013 45.666 98.0439 46.0484 98.4936 46.529C100.507 48.3837 102.616 52.8673 104.022 56.5606C104.869 52.3028 103.766 43.6583 107.968 41.9648C108.701 42.0489 109.4 42.3234 109.997 42.7616C110.593 43.1997 111.067 43.7865 111.372 44.4646C111.196 45.6904 111.18 46.8355 111.004 48.0773C108.48 45.3033 106.53 45.1259 105.859 48.2709C105.348 52.6254 104.853 59.9152 104.357 60.8668C104.118 61.7054 103.511 62.0441 103.143 60.8668C101.753 57.5283 100.762 53.6898 98.5096 51.3674C98.2699 51.6738 98.3817 52.2867 98.158 52.5448Z" fill="#A17D23"/>
<path fill-rule="evenodd" clip-rule="evenodd" d="M130.018 87.3811C128.724 90.2679 127.318 90.6066 126.023 88.1713C124.713 85.3489 126.279 80.2686 129.219 73.9788C129.65 71.995 129.411 71.8499 128.5 73.511C124.378 81.7685 122.285 88.3165 123.707 91.8808C126.103 96.0418 129.571 92.9613 130.657 87.752C130.833 86.4456 130.593 86.2682 130.018 87.3811Z" fill="#A17D23"/>
<path fill-rule="evenodd" clip-rule="evenodd" d="M55.7366 113.266C54.4424 116.169 53.0364 116.492 51.7422 114.073C50.432 111.234 51.9978 106.154 54.9377 99.8641C55.3692 97.8964 55.1295 97.7352 54.2187 99.4125C50.0964 107.654 47.9873 114.218 49.4254 117.766C51.822 121.927 55.2893 118.847 56.3758 113.653C56.5516 112.331 56.3118 112.202 55.7366 113.266Z" fill="#A17D23"/>
<path d="M0.804626 214.759V187.697H10.0399C11.6468 187.653 13.2537 187.783 14.8333 188.084C16.2802 188.396 17.6295 189.06 18.7638 190.019C20.2112 191.254 21.3129 192.85 21.9593 194.648C22.6967 196.716 23.0541 198.902 23.0139 201.099C23.0411 202.947 22.7988 204.789 22.2949 206.566C21.9035 207.972 21.2825 209.302 20.4574 210.502C19.8022 211.465 18.9794 212.302 18.0288 212.969C17.0487 213.603 15.9677 214.061 14.8333 214.324C13.418 214.646 11.9699 214.798 10.5192 214.776L0.804626 214.759ZM4.35167 211.534H10.0718C11.479 211.584 12.8856 211.415 14.242 211.034C15.1438 210.774 15.9674 210.292 16.6387 209.631C17.5568 208.667 18.2311 207.494 18.604 206.212C19.1204 204.52 19.3632 202.756 19.3231 200.986C19.4409 198.749 18.9607 196.521 17.9329 194.535C17.1834 193.165 16.0027 192.087 14.5776 191.471C13.0849 191.029 11.5294 190.844 9.97592 190.922H4.35167V211.534Z" fill="#A17D23"/>
<path d="M56.9829 212.34C55.9432 213.276 54.755 214.028 53.4678 214.566C52.3028 215.004 51.068 215.223 49.8248 215.211C48.042 215.316 46.2851 214.741 44.9036 213.598C44.3471 213.091 43.9061 212.467 43.611 211.771C43.3158 211.075 43.1736 210.323 43.1941 209.566C43.1845 208.672 43.3937 207.788 43.8035 206.995C44.2132 206.202 44.8107 205.523 45.5428 205.018C46.2655 204.527 47.0648 204.162 47.9075 203.938C48.8706 203.709 49.8473 203.542 50.8314 203.438C52.8257 203.281 54.8002 202.93 56.7273 202.389C56.7273 201.922 56.7273 201.631 56.7273 201.518C56.7819 201.001 56.7276 200.478 56.5678 199.983C56.4081 199.488 56.1466 199.033 55.8005 198.648C54.7254 197.825 53.3915 197.424 52.0458 197.519C50.8439 197.427 49.6435 197.714 48.6105 198.341C47.7636 199.102 47.1998 200.132 47.0127 201.26L43.8171 200.809C44.0382 199.587 44.5359 198.434 45.2712 197.438C46.0331 196.514 47.0427 195.831 48.1792 195.47C49.5975 194.98 51.0901 194.745 52.589 194.777C53.9596 194.733 55.3274 194.929 56.6314 195.358C57.5066 195.654 58.2928 196.17 58.9163 196.857C59.438 197.512 59.7895 198.289 59.9389 199.115C60.0759 200.131 60.1293 201.155 60.0986 202.18V206.615C60.0468 208.569 60.1216 210.525 60.3223 212.469C60.4567 213.298 60.7382 214.096 61.1532 214.824H57.7019C57.3114 214.048 57.0676 213.206 56.9829 212.34ZM56.7113 204.921C54.9719 205.554 53.1645 205.976 51.3268 206.179C50.3463 206.288 49.3813 206.51 48.4508 206.841C47.9285 207.055 47.4827 207.424 47.1719 207.899C46.8611 208.374 46.6997 208.933 46.7091 209.502C46.6999 209.924 46.7841 210.342 46.9555 210.727C47.1268 211.112 47.3811 211.454 47.6997 211.727C48.5382 212.365 49.5769 212.674 50.6237 212.598C51.806 212.622 52.9738 212.333 54.011 211.76C54.9549 211.244 55.7148 210.444 56.184 209.469C56.5892 208.412 56.7689 207.28 56.7113 206.147V204.921Z" fill="#A17D23"/>
<path d="M89.1944 211.792L89.6737 214.727C88.8547 214.909 88.0196 215.006 87.1812 215.017C86.222 215.071 85.265 214.877 84.401 214.453C83.7882 214.119 83.3001 213.593 83.011 212.953C82.6701 211.671 82.5352 210.343 82.6115 209.018V197.728H80.1989V195.132H82.6115V190.293L85.8071 188.294V195.148H89.1145V197.744H85.8071V209.211C85.7706 209.824 85.8299 210.439 85.9828 211.034C86.0972 211.308 86.2999 211.535 86.558 211.679C86.9016 211.862 87.2887 211.946 87.6765 211.921C88.1847 211.912 88.6918 211.869 89.1944 211.792Z" fill="#A17D23"/>
<path d="M122.588 208.453L125.991 208.873C125.557 210.732 124.502 212.383 123.004 213.55C121.131 214.783 118.907 215.356 116.678 215.178C114.449 215 112.342 214.081 110.685 212.566C108.924 210.511 108.029 207.843 108.192 205.131C108.013 202.333 108.918 199.575 110.717 197.438C111.551 196.537 112.568 195.827 113.698 195.356C114.829 194.886 116.046 194.666 117.268 194.712C118.461 194.666 119.651 194.881 120.754 195.343C121.858 195.805 122.849 196.503 123.659 197.39C125.418 199.482 126.306 202.182 126.135 204.921C126.135 205.115 126.135 205.421 126.135 205.808H111.643C111.628 207.626 112.27 209.386 113.449 210.76C113.968 211.317 114.598 211.757 115.297 212.052C115.997 212.346 116.75 212.489 117.507 212.469C118.616 212.508 119.707 212.173 120.607 211.518C121.546 210.711 122.235 209.646 122.588 208.453ZM111.771 203.083H122.62C122.586 201.745 122.158 200.448 121.39 199.357C120.9 198.741 120.277 198.247 119.567 197.914C118.858 197.581 118.082 197.418 117.299 197.438C116.594 197.422 115.892 197.55 115.236 197.813C114.58 198.076 113.983 198.47 113.481 198.97C112.421 200.077 111.811 201.544 111.771 203.083Z" fill="#A17D23"/>
<path d="M145.676 208.84L148.872 208.324C148.986 209.509 149.561 210.599 150.47 211.356C151.491 212.018 152.674 212.38 153.887 212.403C155.1 212.426 156.295 212.108 157.34 211.485C157.672 211.225 157.942 210.893 158.13 210.513C158.318 210.134 158.419 209.716 158.427 209.292C158.436 208.937 158.352 208.586 158.183 208.275C158.015 207.963 157.768 207.702 157.468 207.518C156.394 207.005 155.262 206.626 154.097 206.389C152.376 205.998 150.692 205.458 149.064 204.776C148.205 204.39 147.477 203.758 146.971 202.958C146.466 202.158 146.204 201.225 146.219 200.277C146.216 199.431 146.425 198.599 146.827 197.857C147.202 197.113 147.751 196.471 148.424 195.987C149.067 195.555 149.774 195.228 150.518 195.019C151.443 194.755 152.4 194.625 153.362 194.632C154.733 194.601 156.097 194.825 157.388 195.293C158.393 195.628 159.277 196.257 159.929 197.099C160.541 198.004 160.93 199.044 161.063 200.131L157.867 200.567C157.763 199.643 157.304 198.798 156.589 198.212C155.723 197.595 154.675 197.293 153.617 197.357C152.5 197.272 151.384 197.537 150.422 198.115C150.134 198.313 149.896 198.577 149.73 198.885C149.563 199.194 149.471 199.538 149.463 199.889C149.456 200.312 149.598 200.723 149.862 201.051C150.195 201.457 150.632 201.764 151.125 201.938C151.46 202.067 152.419 202.341 154.033 202.792C155.663 203.225 157.265 203.764 158.826 204.405C159.735 204.755 160.511 205.387 161.042 206.21C161.573 207.033 161.832 208.005 161.782 208.986C161.782 210.102 161.448 211.193 160.823 212.114C160.141 213.134 159.173 213.926 158.043 214.388C156.75 214.941 155.357 215.216 153.953 215.195C151.905 215.332 149.871 214.764 148.185 213.582C146.786 212.378 145.89 210.684 145.676 208.84Z" fill="#A17D23"/>
</svg>
